# xmcd CD database file
#
# Track frame offsets:
#	150
#	16125
#	37768
#	54265
#	71305
#	90569
#	112926
#	131287
#	145650
#	163706
#	184677
#	198592
#	218168
#
# Disc length: 3191 seconds
#
# Revision: 0
# Processed by: cddbd v1.5.2PL0 Copyright (c) Steve Scherf et al.
# Submitted via: CDex 1.70beta2
#
DISCID=9f0c750d
DTITLE=Chantal Chamberland - Temptation
DYEAR=2019
DGENRE=Jazz
TTITLE0=Temptation
TTITLE1=Beautiful Life
TTITLE2=Love Never Felt So Good
TTITLE3=Miss Sarajevo
TTITLE4=Chasing Cars
TTITLE5=I Put a Spell on You
TTITLE6=Believe
TTITLE7=Ain't No Sunshine - I Can't Stand the Rain
TTITLE8=I Wanna Dance with Somebody
TTITLE9=I Want a Little Sugar in My Bowl
TTITLE10=I Think of You
TTITLE11=I Don't Want to Talk about It
TTITLE12=Syrup and Honey
EXTD=YEAR: 2019
EXTT0=
EXTT1=
EXTT2=
EXTT3=
EXTT4=
EXTT5=
EXTT6=
EXTT7=
EXTT8=
EXTT9=
EXTT10=
EXTT11=
EXTT12=
PLAYORDER=
